<svg width="20" height="20" viewBox="0 0 20 20" fill="none" xmlns="http://www.w3.org/2000/svg">
<path d="M16.1915 10.9475H12.8199L14.942 12.9244V18.0334L19.7193 18.0527V14.0334L16.1915 10.9475Z" fill="white"/>
<path d="M4.11064 10.1083L0 13.1944V18.0333H12.9912V13.1944L9.14229 10.1083H4.11064Z" fill="white"/>
<path d="M6.47674 8.21599C8.2169 8.21599 9.62758 6.81274 9.62758 5.08174C9.62758 3.35073 8.2169 1.94748 6.47674 1.94748C4.73658 1.94748 3.3259 3.35073 3.3259 5.08174C3.3259 6.81274 4.73658 8.21599 6.47674 8.21599Z" fill="white"/>
<path d="M13.3333 9.5264C14.9113 9.5264 16.1905 8.25395 16.1905 6.6843C16.1905 5.11465 14.9113 3.84219 13.3333 3.84219C11.7554 3.84219 10.4762 5.11465 10.4762 6.6843C10.4762 8.25395 11.7554 9.5264 13.3333 9.5264Z" fill="white"/>
</svg>
